<?xml version="1.0" standalone="no"?>
<!DOCTYPE svg PUBLIC "-//W3C//DTD SVG 20010904//EN"
 "http://www.w3.org/TR/2001/REC-SVG-20010904/DTD/svg10.dtd">
<svg version="1.0" xmlns="http://www.w3.org/2000/svg"
 width="1000.000000pt" height="1000.000000pt" viewBox="0 0 1000.000000 1000.000000"
 preserveAspectRatio="xMidYMid meet">
<metadata>
Created by potrace 1.11, written by Peter Selinger 2001-2013
</metadata>
<g transform="translate(0.000000,1000.000000) scale(0.100000,-0.100000)"
fill="#000000" stroke="none">
<path d="M4165 9289 c-27 -4 -72 -11 -100 -14 -27 -4 -80 -13 -117 -21 -37 -7
-81 -16 -96 -19 -152 -26 -482 -134 -682 -222 -48 -21 -256 -125 -305 -153
-100 -56 -130 -75 -133 -82 -2 -4 -8 -8 -13 -8 -5 0 -38 -20 -75 -45 -36 -25
-69 -45 -74 -45 -4 0 -10 -3 -12 -7 -1 -5 -46 -40 -98 -80 -52 -39 -106 -81
-120 -93 -14 -12 -45 -38 -69 -58 -62 -52 -274 -264 -346 -346 -242 -279 -414
-552 -590 -941 -39 -86 -129 -340 -140 -395 -2 -8 -4 -15 -5 -15 -1 0 -3 -7
-5 -15 -2 -8 -17 -69 -33 -135 -17 -66 -34 -142 -37 -170 -7 -48 -9 -59 -20
-106 -2 -11 -10 -66 -17 -122 -14 -113 -18 -728 -5 -812 4 -27 10 -68 13 -90
4 -37 17 -112 28 -175 15 -83 46 -215 77 -328 2 -8 21 -64 42 -125 20 -62 39
-119 41 -127 5 -18 51 -132 71 -175 103 -229 188 -383 317 -579 34 -50 176
-238 221 -291 109 -128 243 -265 367 -375 47 -41 87 -77 90 -80 4 -5 187 -141
277 -207 17 -13 34 -23 37 -23 2 0 31 -18 64 -39 127 -85 361 -205 548 -281
79 -32 147 -59 149 -60 3 0 10 -2 17 -5 145 -49 356 -107 438 -120 8 -1 22 -5
30 -8 12 -4 97 -18 260 -42 14 -2 54 -7 90 -10 36 -3 83 -8 105 -11 51 -7 429
-7 515 0 88 8 157 15 205 22 22 4 51 8 65 9 14 2 39 5 55 9 17 3 46 8 65 11
53 9 250 53 295 67 22 6 42 12 45 13 3 1 25 8 50 15 25 7 47 14 50 15 24 5
137 46 240 87 198 79 506 238 605 314 18 13 35 24 39 24 11 0 183 127 296 219
95 78 322 296 411 396 121 136 279 354 382 525 143 238 292 580 358 820 16 57
14 48 27 95 6 22 13 51 16 65 2 14 11 54 20 90 8 36 17 81 20 100 3 19 7 45
10 57 2 11 7 43 11 70 4 26 9 62 12 78 4 30 11 113 18 215 5 69 5 365 0 445
-5 103 -14 176 -40 355 -3 19 -12 67 -20 105 -8 39 -17 81 -19 95 -3 14 -12
54 -21 90 -22 86 -21 83 -28 100 -3 8 -16 49 -27 90 -22 75 -69 209 -94 265
-8 17 -22 50 -32 75 -34 86 -170 346 -232 445 -35 55 -68 109 -75 119 -28 46
-186 256 -234 312 -77 91 -84 99 -158 174 -146 150 -235 230 -422 378 -52 41
-257 178 -343 228 -241 142 -566 281 -830 355 -25 7 -49 14 -55 15 -32 10
-185 45 -215 49 -19 3 -41 8 -48 10 -7 3 -34 7 -60 11 -26 3 -65 9 -87 14 -22
4 -47 9 -55 10 -48 7 -864 6 -905 -1z m695 -1013 c25 -3 65 -7 90 -10 42 -5
59 -8 128 -22 15 -3 41 -7 57 -10 95 -16 392 -108 411 -127 4 -4 13 -7 21 -7
20 0 247 -113 349 -174 76 -45 185 -118 229 -153 6 -5 33 -26 60 -48 94 -75
214 -191 305 -295 30 -34 60 -67 65 -74 6 -6 31 -38 55 -71 25 -33 48 -61 53
-63 4 -2 7 -9 7 -15 0 -6 7 -19 17 -29 9 -10 21 -27 27 -37 6 -11 33 -57 61
-102 119 -200 213 -432 275 -683 23 -94 24 -99 35 -186 4 -30 9 -58 11 -62 24
-39 23 -649 -1 -688 -4 -7 -16 -86 -18 -117 0 -13 -5 -23 -10 -23 -4 0 -6 -4
-3 -9 6 -10 -30 -157 -68 -278 -34 -104 -96 -255 -149 -358 -35 -69 -155 -269
-179 -300 -4 -5 -40 -53 -80 -105 -85 -112 -310 -339 -423 -427 -179 -140
-357 -247 -540 -327 -60 -26 -119 -51 -130 -56 -74 -33 -333 -105 -450 -125
-194 -34 -443 -46 -640 -31 -105 8 -164 14 -195 20 -14 3 -43 7 -64 11 -22 3
-95 19 -162 35 -357 87 -680 247 -979 486 -147 118 -319 294 -420 429 -17 22
-32 42 -35 45 -10 10 -120 179 -150 232 -69 118 -197 409 -215 483 -1 6 -5 17
-8 25 -5 13 -17 59 -49 185 -5 22 -12 51 -14 65 -7 45 -16 94 -21 120 -2 14
-6 45 -8 70 -2 25 -4 45 -5 45 -8 0 -13 419 -6 465 2 14 7 54 11 90 3 35 15
112 27 170 24 127 26 135 28 135 1 0 3 7 5 15 15 74 65 227 111 338 52 126
166 345 200 383 8 8 14 19 14 22 0 10 96 143 164 227 57 71 213 232 301 311
53 47 182 144 280 209 72 48 333 186 410 217 79 32 172 65 190 69 11 2 31 8
45 13 14 6 45 15 70 22 43 11 57 14 101 24 11 2 28 7 37 9 9 3 33 8 52 10 19
3 46 8 60 11 28 6 122 17 162 19 15 1 29 4 32 6 6 7 405 4 466 -4z"/>
<path d="M8457 9234 c-1 -1 -33 -4 -72 -8 -273 -23 -529 -205 -650 -461 -54
-113 -77 -218 -76 -345 0 -80 3 -112 15 -169 67 -306 292 -540 601 -622 94
-25 270 -30 351 -10 29 7 58 14 65 15 72 14 221 87 283 139 61 50 135 127 166
172 154 224 193 497 107 740 -26 72 -61 145 -69 145 -4 0 -8 5 -8 11 0 19 -88
126 -151 183 -135 122 -316 197 -502 208 -32 2 -59 3 -60 2z"/>
<path d="M1716 1903 c-1 -1 -24 -4 -51 -8 -248 -29 -463 -202 -535 -432 -21
-66 -30 -217 -16 -268 3 -11 9 -36 14 -56 15 -58 79 -170 130 -225 94 -103
196 -162 343 -198 l87 -21 2933 1 c3297 1 2987 -6 3158 77 63 31 102 59 155
111 39 39 78 80 86 91 32 43 72 140 86 208 53 252 -66 502 -301 632 -87 48
-152 69 -249 81 -44 5 -5834 12 -5840 7z"/>
</g>
</svg>
